<?xml version="1.0" encoding="utf-8"?>
<!-- Generator: Adobe Illustrator 18.1.1, SVG Export Plug-In . SVG Version: 6.00 Build 0)  -->
<svg version="1.1" xmlns="http://www.w3.org/2000/svg" xmlns:xlink="http://www.w3.org/1999/xlink" x="0px" y="0px"
	 viewBox="0 0 158.33 146.215" enable-background="new 0 0 158.33 146.215" xml:space="preserve">
<g id="Layer_1" display="none">
	<g display="inline">
		
			<path fill="#333333" stroke="#FFFFFF" stroke-width="2.371" stroke-linecap="round" stroke-linejoin="round" stroke-miterlimit="10" d="
			M152.087,73.106c0,39.723-32.199,71.924-71.921,71.924S8.243,112.828,8.243,73.106c0-39.719,32.201-71.92,71.923-71.92
			S152.087,33.387,152.087,73.106z"/>
		<g>
			<g>
				<polygon fill="#989898" points="158.33,109.402 158.314,109.572 48.771,99.564 41.637,82.465 				"/>
			</g>
			<g>
				<polygon fill="#CDCCCC" points="158.33,109.402 63.697,62.789 64.807,40.105 				"/>
			</g>
			<g>
				<polygon fill="#FFFFFF" points="99.305,22.672 158.33,109.402 64.807,40.105 				"/>
			</g>
			<g>
				<polygon fill="#FFFFFF" points="158.33,109.402 41.637,82.465 0,72.846 41.529,51.867 63.697,62.789 				"/>
			</g>
		</g>
	</g>
</g>
<g id="Layer_4" display="none">
	<path display="inline" fill="#333333" d="M125.719,92.911L83.923,79.349v23.398l9.788,7.86l-0.006,6.626l-14.586-3.008l-14.5,3.008
		v-6.626l9.788-7.86v-23.46h-0.07L32.611,92.763V82.529l41.726-23.18h0.07v-29.5c0,0-0.102-7.61,4.758-7.61s4.758,7.61,4.758,7.61
		v29.54l41.796,23.086V92.911z M79.165,6.733c-36.656,0-66.376,29.718-66.376,66.374s29.72,66.374,66.376,66.374
		s66.376-29.718,66.376-66.374S115.821,6.733,79.165,6.733z"/>
</g>
<g id="Layer_2" display="none">
	<path display="inline" fill="#333333" d="M79.165,124.341c2.14,0,3.89,1.734,3.89,3.89c0,2.142-1.75,3.892-3.89,3.892
		c-2.156,0-3.89-1.75-3.89-3.892C75.275,126.075,77.009,124.341,79.165,124.341z M79.165,112.389c2.14,0,3.89,1.75,3.89,3.89
		c0,2.156-1.75,3.89-3.89,3.89c-2.156,0-3.89-1.734-3.89-3.89C75.275,114.139,77.009,112.389,79.165,112.389z M55.119,90.403
		c-3.322,1.508-6.664,2.884-9.844,4.22c-0.15,0.062-0.314,0.116-0.47,0.188c-0.68,0.28-1.35,0.562-2.016,0.842
		c-0.038,0.032-0.1,0.024-0.14,0.048c-0.694,0.296-1.398,0.594-2.062,0.89c-0.532,0.226-1.04,0.476-1.546,0.704
		c-1.244,0.554-2.408,1.086-3.516,1.64c-4.548,2.282-8.22,7.274-10.922,13.126c-2.704,5.85-4.406,12.656-4.406,18.842
		c0,0.75,0.492,1.438,1.172,1.736c15.92,7.116,45.132,7.968,57.796,7.968s41.876-0.852,57.796-7.968
		c0.68-0.298,1.172-0.986,1.172-1.736c0-6.186-1.702-12.992-4.406-18.842c-2.702-5.852-6.328-10.844-10.874-13.126
		c-1.11-0.554-2.32-1.086-3.564-1.64c-0.506-0.228-1.014-0.478-1.546-0.704c-0.664-0.296-1.368-0.594-2.062-0.89
		c-0.04-0.024-0.102-0.024-0.14-0.048c-0.666-0.28-1.33-0.562-2.016-0.842c-0.15-0.072-0.32-0.126-0.47-0.188
		c-3.18-1.336-6.522-2.712-9.844-4.22c-0.03,10.986-6.186,18.75-6.186,18.75s-6.134,0.048-12.328-5.624
		c-1.806,0.968-3.712,1.5-5.532,1.5s-3.726-0.532-5.532-1.5c-6.194,5.672-12.328,5.624-12.328,5.624S55.149,101.389,55.119,90.403z
		 M51.321,41.231c-0.28,14.93-6.554,25.986-16.922,31.548c0,0,6.234,14.204,20.438,14.204h8.344
		c4.054,3.578,8.702,5.624,13.688,5.624c4.976,0,9.678-2.046,13.734-5.624h12.89c14.204,0,20.438-14.204,20.438-14.204
		c-14.946-7.094-16.742-17.742-16.876-31.548H51.321z M59.431,21.075h17.672c0.266,0.008,0.508,0.236,0.516,0.516v2.578
		c0.734-0.616,1.67-1.03,2.718-1.03c1.038,0,2.016,0.414,2.766,1.03v-2.578c0-0.28,0.234-0.516,0.516-0.516h17.624
		c0.242,0,0.468,0.18,0.516,0.422c0.046,0.242-0.102,0.524-0.328,0.61l-17.156,6.938c-0.642,1.546-2.172,2.624-3.938,2.624
		c-1.774,0-3.25-1.078-3.89-2.624l-17.158-6.938c-0.218-0.078-0.358-0.32-0.328-0.562C58.993,21.317,59.189,21.099,59.431,21.075z
		 M79.821,5.607c-10.266,1.328-20.032,12.57-35.812,18.094c-0.586,0.18-1.062,0.64-1.266,1.218c-0.21,0.578-0.148,1.228,0.188,1.734
		l6.89,10.36c0.36,0.54,1,0.844,1.64,0.844h57.75c0.65,0,1.282-0.304,1.642-0.844l6.89-10.36c0.336-0.506,0.446-1.156,0.234-1.734
		c-0.202-0.578-0.688-1.046-1.266-1.218C100.915,18.177,91.119,6.935,80.853,5.607C80.501,5.631,80.141,5.631,79.821,5.607z"/>
</g>
<g id="Layer_3" display="none">
	<path display="inline" fill="#333333" d="M100.681,113.091L100.681,113.091c0.03,0,0.062,0,0.094,0c0.014,0,0.03,0,0.046,0h14.438
		c0.124,0,0.242,0.048,0.328,0.14c0.054,0.072,0.086,0.15,0.094,0.236c0,0.016,0,0.03,0,0.046v2.11
		c0.608-0.516,1.39-0.844,2.25-0.844c0.858,0,1.64,0.328,2.25,0.844v-2.11c0.008-0.046,0.024-0.094,0.046-0.14
		c0.032-0.102,0.102-0.18,0.188-0.234c0.07-0.04,0.156-0.056,0.234-0.048h14.438c0.032,0,0.062,0,0.094,0
		c0.18,0.04,0.312,0.196,0.328,0.376c0.016,0.116-0.016,0.234-0.094,0.328c-0.024,0.038-0.054,0.07-0.094,0.094
		c-0.032,0.014-0.062,0.03-0.094,0.046l-14.062,5.672c-0.524,1.266-1.782,2.156-3.234,2.156c-1.454,0-2.664-0.89-3.188-2.156
		l-14.062-5.672c-0.102-0.032-0.18-0.102-0.234-0.188c-0.072-0.108-0.086-0.25-0.048-0.374
		C100.439,113.239,100.547,113.131,100.681,113.091z M75.461,107.983L75.461,107.983c-0.398,0.078-0.71,0.39-0.796,0.796
		l-1.968,8.766c1.936,4.164,4.07,8.242,6.422,12.186c2.374-3.92,4.562-8.006,6.514-12.186l-1.968-8.766
		c-0.118-0.484-0.546-0.812-1.032-0.796h-6.936c-0.048,0-0.094,0-0.142,0C75.525,107.983,75.493,107.983,75.461,107.983z
		 M73.681,95.561L73.681,95.561c-0.57,0.116-0.938,0.686-0.798,1.264l1.594,8.204c0.094,0.484,0.5,0.836,0.984,0.844h7.36
		c0.5,0.016,0.938-0.344,1.032-0.844l1.594-8.204c0.148-0.664-0.368-1.288-1.032-1.264h-10.5c-0.046,0-0.094,0-0.14,0
		C73.743,95.561,73.711,95.561,73.681,95.561z M57.227,81.825c-1.702,0.664-20.984,8.242-26.344,11.906
		c-5.6,3.836-9.014,8.188-12,14.766c-2.984,6.578-4.874,14.22-4.874,21.188c0,0.836,0.516,1.626,1.266,1.968
		c17.594,8.008,49.898,8.954,63.89,8.954c14,0,46.25-0.946,63.844-8.954c0.75-0.342,1.312-1.132,1.312-1.968
		c0-6.968-1.89-14.61-4.874-21.188c-2.986-6.578-6.4-10.93-12-14.766c-5.352-3.656-24.586-11.218-26.344-11.906
		c-2.946,13.188-6.93,26.11-12.142,37.078c-1.928,3.93-4.054,7.914-5.718,10.922c-0.828,1.5-1.546,2.75-2.11,3.658
		c-0.28,0.452-0.492,0.796-0.702,1.078c-0.11,0.14-0.204,0.296-0.328,0.422c-0.062,0.062-0.118,0.108-0.234,0.186
		c-0.118,0.078-0.306,0.228-0.704,0.234c-0.398-0.006-0.586-0.156-0.704-0.234c-0.116-0.078-0.172-0.124-0.234-0.186
		c-0.124-0.126-0.218-0.282-0.328-0.422c-0.21-0.282-0.468-0.626-0.75-1.078c-0.562-0.908-1.28-2.158-2.108-3.658
		c-1.666-3.008-3.744-6.992-5.672-10.922C64.157,107.935,60.173,95.013,57.227,81.825z M107.477,40.435
		c-2.038,0.828-4.086,1.586-6.188,2.25c-16.334,5.626-34.546,4.266-50.436-2.202c-0.04,2.664-0.094,5.39-0.094,5.39
		c-0.18,0.086-0.398,0.116-0.562,0.234c-0.766,0.546-1.236,1.32-1.548,2.11c-0.624,1.578-0.702,3.32-0.702,5.53
		c0,6.992,4.014,13.634,8.014,17.532c3.134,11.562,12.204,20.258,23.204,20.578c11-0.32,20.07-9.016,23.204-20.578
		c4-3.898,8.014-10.54,8.014-17.532c0-2.21-0.078-3.952-0.702-5.53c-0.312-0.79-0.828-1.564-1.594-2.11
		c-0.164-0.118-0.336-0.148-0.516-0.234C107.571,45.873,107.517,43.131,107.477,40.435z M79.165,27.311
		c-14.828,0-27.602,5.592-32.204,7.874c4.602,2.29,17.376,7.828,32.204,7.828s27.602-5.538,32.204-7.828
		C106.767,32.903,93.993,27.311,79.165,27.311z M61.869,13.717L61.869,13.717c0.046-0.008,0.092-0.008,0.14,0
		c0.016,0,0.032,0,0.046,0h14.438c0.204,0,0.376,0.132,0.422,0.328c0,0.03,0,0.062,0,0.094v2.108c0.61-0.516,1.39-0.844,2.25-0.844
		s1.64,0.328,2.25,0.844v-2.108c0-0.126,0.046-0.242,0.14-0.328c0.04-0.04,0.086-0.072,0.142-0.094c0.046-0.008,0.092-0.008,0.14,0
		h14.438c0.078-0.008,0.164,0.008,0.234,0.046c0.288,0.164,0.288,0.586,0,0.75c-0.016,0.016-0.032,0.032-0.048,0.048l-14.062,5.67
		c-0.524,1.266-1.78,2.158-3.234,2.158s-2.71-0.892-3.234-2.158l-14.062-5.67c-0.016-0.016-0.032-0.032-0.048-0.048
		c-0.078-0.038-0.148-0.11-0.188-0.188c-0.092-0.21-0.014-0.452,0.188-0.562C61.837,13.747,61.853,13.731,61.869,13.717z
		 M79.165,5.607c-17.328,0-36.46,13.922-34.406,25.546c0.14,0.798,0.438,1.54,0.844,2.25c4.382-2.242,17.608-8.296,33.562-8.296
		c15.946,0,29.18,6.054,33.562,8.296c0.406-0.71,0.704-1.452,0.844-2.25C115.619,19.529,96.485,5.607,79.165,5.607z"/>
</g>
<g id="luggages" display="none">
	<path display="inline" fill="#333333" d="M72.282,15.559h-4.766c0-5.492,4.468-9.96,9.96-9.96h8.048c5.492,0,9.96,4.468,9.96,9.96
		h-4.766c0-2.866-2.336-5.194-5.194-5.194h-8.048C74.618,10.365,72.282,12.693,72.282,15.559z M90.718,37.551h4.766V17.145h-4.766
		V37.551z M67.516,37.551h4.766V17.145h-4.766V37.551z M66.82,131.193l-0.352,0.664l1.072,1.796c0.46,0.564,0.726,1.282,0.726,2.07
		c0,1.822-1.476,3.298-3.298,3.298c-1.21,0-2.258-0.648-2.836-1.618l-2.03-2.172c-0.016,0.164-0.024,0.328-0.024,0.5
		c0,2.696,2.188,4.884,4.89,4.884c2.704,0,4.892-2.188,4.892-4.884C69.852,133.669,68.594,131.919,66.82,131.193z M63.618,135.709
		c0,0.742,0.6,1.344,1.342,1.344c0.744,0,1.344-0.602,1.344-1.344s-0.6-1.344-1.344-1.344
		C64.218,134.365,63.618,134.967,63.618,135.709z M62.828,137.067l-3.368-3.616l-1.092-3.384h8.218l-0.954,1.798l1.344,2.274
		c0.814,1.14,0.54,2.726-0.608,3.538c-0.094,0.07-0.204,0.126-0.306,0.18c-0.022,0.016-0.046,0.032-0.07,0.038
		c-0.102,0.048-0.21,0.094-0.32,0.126c-0.016,0-0.024,0.008-0.04,0.008c-0.1,0.03-0.202,0.054-0.304,0.07
		c-0.024,0.008-0.046,0.008-0.07,0.016c-0.11,0.016-0.218,0.024-0.328,0.024c-0.032,0-0.054,0-0.086,0c-0.062,0-0.126,0-0.188-0.008
		c-0.032-0.008-0.062-0.008-0.094-0.016c-0.062-0.008-0.124-0.016-0.18-0.032c-0.03,0-0.062-0.008-0.092-0.016
		c-0.072-0.022-0.134-0.038-0.204-0.062c-0.024-0.008-0.04-0.016-0.062-0.024c-0.078-0.03-0.164-0.062-0.25-0.108
		c-0.016-0.008-0.04-0.024-0.056-0.032c-0.062-0.038-0.124-0.07-0.186-0.11c-0.024-0.014-0.056-0.038-0.078-0.054
		c-0.056-0.032-0.11-0.07-0.158-0.11c-0.022-0.014-0.054-0.038-0.078-0.062c-0.046-0.046-0.094-0.094-0.14-0.14
		c-0.024-0.016-0.046-0.04-0.062-0.062C62.946,137.231,62.89,137.161,62.828,137.067z M101.594,131.193l-0.352,0.664l1.07,1.796
		c0.454,0.564,0.728,1.282,0.728,2.07c0,1.822-1.478,3.298-3.298,3.298c-1.21,0-2.266-0.648-2.836-1.618l-2.03-2.172
		c-0.016,0.164-0.024,0.328-0.024,0.5c0,2.696,2.188,4.884,4.89,4.884c2.704,0,4.89-2.188,4.89-4.884
		C104.632,133.669,103.376,131.919,101.594,131.193z M98.398,135.709c0,0.742,0.602,1.344,1.344,1.344
		c0.742,0,1.344-0.602,1.344-1.344s-0.602-1.344-1.344-1.344C99,134.365,98.398,134.967,98.398,135.709z M97.618,137.067
		l-3.368-3.616l-1.094-3.384h8.22l-0.954,1.798l1.344,2.274c0.804,1.14,0.538,2.726-0.61,3.538c-0.102,0.07-0.21,0.126-0.312,0.18
		c-0.024,0.016-0.048,0.032-0.07,0.038c-0.11,0.048-0.212,0.094-0.32,0.126c-0.016,0-0.024,0.008-0.04,0.008
		c-0.094,0.03-0.196,0.054-0.296,0.07c-0.032,0.008-0.056,0.008-0.078,0.016c-0.11,0.016-0.22,0.024-0.33,0.024
		c-0.03,0-0.054,0-0.086,0c-0.062,0-0.124,0-0.186-0.008c-0.04-0.008-0.07-0.008-0.102-0.016c-0.062-0.008-0.118-0.016-0.18-0.032
		c-0.032,0-0.062-0.008-0.094-0.016c-0.07-0.022-0.14-0.038-0.202-0.062c-0.024-0.008-0.04-0.016-0.064-0.024
		c-0.092-0.03-0.172-0.062-0.256-0.108c-0.024-0.008-0.04-0.024-0.056-0.032c-0.062-0.038-0.124-0.07-0.188-0.11
		c-0.022-0.014-0.054-0.038-0.078-0.054c-0.046-0.032-0.1-0.07-0.148-0.11c-0.03-0.014-0.054-0.038-0.078-0.062
		c-0.046-0.046-0.094-0.094-0.14-0.14c-0.024-0.016-0.04-0.04-0.062-0.062C97.726,137.231,97.664,137.161,97.618,137.067z
		 M98.406,72.059c0-5.984-8.976-5.984-8.976,0C89.43,78.045,98.406,78.045,98.406,72.059 M98.226,99.623
		c2.04-0.61,3.196-2.75,2.586-4.782c-0.602-2.032-2.742-3.196-4.772-2.586c-2.04,0.61-3.188,2.75-2.586,4.782
		C94.062,99.067,96.204,100.223,98.226,99.623z M98.774,101.427l-10.228-2.93l6.962-8.054l10.226,2.93L98.774,101.427z
		 M79.282,63.537l-0.008-0.04 M110.078,99.927l-0.016-0.046l-4.28-14.376l-21.586,6.438l4.296,14.422L110.078,99.927z
		 M80.876,75.693l21.398,7.03l0.016-0.046l4.678-14.25L85.57,61.395L80.876,75.693z M79.39,104.521l-11.984-4.29l-2.062,5.766
		l11.984,4.29L79.39,104.521z M76.446,112.747l-11.986-4.288l-2.062,5.764l11.984,4.29L76.446,112.747z M61.992,107.575
		l-6.578-2.352l-2.062,5.766l6.578,2.352L61.992,107.575z M54.812,52.231l8.57,3.954l-1.758,0.274l-6.632-3.056l0.086,0.54
		l0.046,0.024l5.68,2.624l-5.148,0.804l-0.046,0.008l0.148,0.922l9.788-1.53l-0.952-6.094l-0.922,0.14l0.008,0.048l0.656,4.17
		l-6.906-3.194l-0.07-0.032L54.812,52.231 M58.36,96.997l-2.064,5.766l6.58,2.352l2.062-5.766L58.36,96.997z M57.118,67.005
		l-0.008-0.054l6.914-6.336l1.148-0.18l0.062,0.398l-6.43,5.89l0.868-0.132l0.062-0.054l5.586-5.126l0.648,4.156l0.008,0.048
		l0.922-0.14l-0.952-6.094l-9.79,1.53l0.148,0.922l0.048-0.008l5.164-0.804l-4.626,4.25l-0.038,0.038L57.118,67.005 M76.976,48.763
		l-6.96,6.398l-1.094,0.172l-0.07-0.444l6.374-5.844l-0.788,0.124l-0.062,0.054l-5.602,5.15l-0.656-4.172l-0.008-0.048l-0.922,0.142
		l0.952,6.094l9.79-1.532l-0.14-0.922l-0.048,0.008l-5.148,0.804l4.61-4.234l0.038-0.038L76.976,48.763 M79.016,61.841l-0.048-0.024
		l-5.71-2.64l5.164-0.804l0.046-0.008l-0.14-0.922l-9.788,1.532l0.952,6.092l0.922-0.14l-0.008-0.046l-0.648-4.158l6.882,3.18
		l0.078,0.032l2.564-0.398v-0.008l-0.008-0.04l-8.516-3.922l1.758-0.272l6.578,3.03l-0.126-0.508 M117.062,46.545v74.914
		c0,4.18-3.398,7.57-7.578,7.57H53.516c-4.188,0-7.578-3.39-7.578-7.57V46.553c0-4.188,3.398-7.578,7.578-7.578h55.968
		C113.664,38.975,117.062,42.365,117.062,46.545z M74.43,118.529l-0.016,0.046"/>
</g>
<g id="Layer_6" display="none">
	<path display="inline" fill="#333333" d="M25.165,5.888h10.132v134.431H25.165V5.888z M90.154,88.928
		c1.534-9.365,1.843-20.124,1.843-20.124l22.648,11.974l-0.985-4.246l-21.544-18.07c-0.668-12.172-2.2-15.813-2.2-15.813
		c-0.619-1.273-2.083-1.217-2.083-1.217h-0.027c0,0-1.463-0.063-2.081,1.217c0,0-1.526,3.641-2.201,15.813l-21.551,18.07
		l-0.977,4.246l22.648-11.974c0,0,0.31,10.759,1.843,20.124c0,0-6.757,6.082-6.631,6.511v1.701c0,0,0.302,0.31,1.35,0.121
		l5.886-2.005c0,0,1.118-0.245,1.735-0.182c0.612-0.063,1.73,0.182,1.73,0.182l5.886,2.005c1.048,0.189,1.35-0.121,1.35-0.121
		v-1.701C96.911,95.017,90.161,88.928,90.154,88.928z M133.165,15.212v115.79c0,5.146-4.205,9.317-9.394,9.317v0.007H42.476V5.888
		h81.295C128.96,5.895,133.165,10.064,133.165,15.212z"/>
</g>
<g id="Layer_7" display="none">
	<g display="inline">
		<path fill="#333333" d="M79.168,10.056c-17.024,0-30.882,13.852-30.882,30.884v10.468h15.678V40.94
			c0-8.384,6.822-15.204,15.196-15.204c8.384,0,15.204,6.82,15.204,15.204v10.468h15.68V40.94
			C110.05,23.908,96.2,10.056,79.168,10.056z"/>
		<path fill="#333333" d="M103.927,95.978c0,0.376-0.274,0.68-0.594,0.68H82.615v2.548c0,1.858-0.188,4.89-0.414,6.734
			l-1.274,10.218l6.82,3.132c0.32,0.086,0.578,0.462,0.578,0.836v0.696c0,0.376-0.274,0.68-0.594,0.68h-17.5
			c-0.328,0-0.602-0.304-0.602-0.68v-0.696c0-0.374,0.266-0.75,0.578-0.836l6.696-3.1l-1.188-10.188
			c-0.218-1.844-0.39-4.876-0.39-6.734v-2.61H54.981c-0.328,0-0.602-0.304-0.602-0.68V95.01c0-0.368,0.266-0.742,0.586-0.82
			l20.352-5.766V77.252c0-1.86,0.648-4.718,1.446-6.352l0.758-1.554c0.796-1.634,2.094-1.634,2.882,0l0.758,1.554
			c0.796,1.634,1.446,4.484,1.446,6.352V88.33l20.726,5.86c0.32,0.078,0.586,0.452,0.586,0.82v0.968H103.927z M111.637,56.064
			H46.685c-6.648,0-12.04,5.392-12.04,12.04v43.968c0,13.298,10.782,24.086,24.086,24.086h40.868
			c13.296,0,24.086-10.782,24.086-24.086V68.104C123.677,61.456,118.285,56.064,111.637,56.064z"/>
	</g>
</g>
<g id="Layer_8" display="none">
	<g display="inline">
		<path fill="#333333" d="M97.377,74.181c0,10.518-8.531,19.042-19.044,19.042c-10.518,0-19.042-8.524-19.042-19.042
			c0-10.512,8.524-19.036,19.042-19.036C88.845,55.145,97.377,63.669,97.377,74.181"/>
		<path fill="#333333" d="M54.455,83.604h3.014V66.306c3.198-8.425,11.329-14.447,20.864-14.447c9.537,0,17.668,6.014,20.864,14.439
			v17.306h3.016c5.2,0,9.415-4.217,9.415-9.415c0-4.475-3.12-8.208-7.307-9.168c-3.794-10.708-13.994-18.415-25.989-18.415
			c-11.992,0-22.193,7.707-25.987,18.415c-4.186,0.96-7.309,4.701-7.309,9.174C45.038,79.387,49.255,83.604,54.455,83.604z"/>
		<path fill="#333333" d="M143.119,91.826c0.006-0.205,0-0.408,0-0.613V59.134c0-1.534-0.515-2.569-2.049-2.569h-13.882
			c-1.534,0-3.354,1.043-3.354,2.569v23.435L96.417,96.556H61.913L34.496,82.562V59.134c0-1.534-1.828-2.569-3.354-2.569H17.26
			c-1.534,0-2.049,1.043-2.049,2.569v32.125c0,0.188-0.006,0.369,0,0.559v0.166c0,1.784,0.515,3.445,1.375,4.881
			c1.066,1.965,2.706,3.635,4.852,4.732l26.124,13.329v30.726h59.615v-28.898l29.715-15.165c2.138-1.097,3.786-2.766,4.852-4.732
			c0.869-1.428,1.375-3.089,1.375-4.873V91.826z"/>
		<polygon fill="#333333" points="137.412,0.562 129.773,0.562 128.132,35.376 138.819,35.376 		"/>
		<path fill="#333333" d="M125.875,53.195h13.88c1.534,0,3.356-1.043,3.356-2.569v-3.318c0-5.274-4.376-9.545-9.644-9.545
			c-5.274,0-9.642,4.271-9.642,9.545v3.318C123.834,52.152,124.346,53.195,125.875,53.195z"/>
		<polygon fill="#333333" points="28.791,0.562 21.152,0.562 19.511,35.376 30.198,35.376 		"/>
		<path fill="#333333" d="M17.26,53.195h13.882c1.534,0,3.354-1.043,3.354-2.569v-3.318c0-5.274-4.376-9.545-9.642-9.545
			c-5.276,0-9.644,4.271-9.644,9.545v3.318C15.211,52.152,15.726,53.195,17.26,53.195z"/>
	</g>
</g>
<g id="Layer_9" display="none">
	<g display="inline">
		<rect x="145.867" y="20.443" fill="#333333" width="8.296" height="105.328"/>
		<path fill="#333333" d="M128.717,69.193c-2.014-6.226-4.508-12.226-7.436-17.976c-0.868-1.704-1.766-3.392-2.712-5.056
			c-3.774-6.632-8.148-12.914-13.062-18.804l33.21,5.804L128.717,69.193z M87.303,85.731c-1.632-5.906-3.82-11.546-6.5-16.914
			c-0.85-1.71-1.764-3.398-2.718-5.046c-3.094-5.344-6.688-10.374-10.75-15.062l16.938-11.25c4.882,5.602,9.194,11.624,12.866,18.03
			c0.954,1.658,1.852,3.344,2.72,5.048c3.234,6.406,5.858,13.164,7.78,20.242L87.303,85.731z M44.077,96.263
			c-0.992-3.406-2.258-6.696-3.774-9.836c-0.836-1.726-1.742-3.406-2.718-5.046c-1.844-3.078-3.93-6-6.25-8.758l16.938-11.25
			c3.132,3.672,5.936,7.586,8.366,11.726c0.97,1.648,1.884,3.328,2.728,5.048c2.062,4.186,3.756,8.584,5.054,13.164L44.077,96.263z
			 M19.437,102.139c-1.282-0.414-4.22-2.586-6.47-7.15c-2.25-4.562-2.086-7.992-1.57-9.14c1.282,0.414,4.22,2.586,6.47,7.148
			C20.117,97.567,19.953,100.989,19.437,102.139z M99.327,20.443L44.281,57.005L27.335,68.263L8.007,80.959
			c-1.648,0.914-3.742,2.914-3.836,7.21c-0.062,2.852,0.774,6.204,2.374,9.43c3,6.07,8.634,11.562,14.462,10.148
			c0.188-0.046,0.374-0.1,0.554-0.156l23.86-5.812l20.344-4.954l22.882-5.578l20.32-4.952l22.876-5.57l14.024-52.072L99.327,20.443z
			"/>
	</g>
</g>
<g id="Layer_10" display="none">
	<g display="inline">
		<path fill="#333333" d="M72.575,132.615c-9.759-1.814-14.175-25.188-16.131-42.969c3.699,2.275,9.567,4.984,16.57,4.984
			c4.811,0,10.162-1.319,15.69-4.899C86.733,107.498,82.319,130.801,72.575,132.615z M97.782,110.773
			c-0.007-9.554,5.138-17.909,12.814-22.437l-0.007-3.77c-7.286-3.551-14.621-5.423-20.864-6.379
			c-0.156,2.253-0.368,4.855-0.631,7.654c-14.883,11.225-28.305,3.522-33.047,0.015c-0.261-2.75-0.468-5.301-0.622-7.527
			c-10.958,1.814-25.061,6.45-36.307,17.952c-0.461,9.674,0.468,22.579,4.614,28.114c3.734,4.982,10.106,14.458,38.993,16.278
			c0,0,10.247,1.05,20.311,0.022c14.373-0.878,23.203-3.636,28.923-6.804C103.552,129.582,97.782,120.858,97.782,110.773z"/>
		<path fill="#333333" d="M117.698,119.432c-0.015-2.466,1.985-4.478,4.443-4.485c2.466-0.015,4.479,1.985,4.494,4.458
			c0.005,2.458-1.985,4.465-4.452,4.479C119.71,123.89,117.705,121.9,117.698,119.432z M132.488,97.853l-0.049-11.544l-3.431-0.37
			l-0.142-6.35v-0.154l-1.163-1.517l0.171-2.148l1.17-1.283l-0.085-0.156l-0.093-4.692v-0.163l-2.714-2.6l0.156-2.721l1.29-1.412
			l-0.056-0.085l0.076-0.078l-1.283-1.651l-0.005-2.012V58.91l1.778-2.551l-0.049-0.093l0.049-0.071l-0.9-1.524l-0.007-1.629
			l1.778-2.17l-0.076-0.071l0.076-0.091l-7.625-7.364l-1.558,1.587v-0.312l-0.815,0.729l-2.487,1.97l-0.093,43.14l-3.409,1.673
			v4.677c-4.536,3.019-8.291,8.56-8.264,14.89c0.036,9.518,7.867,17.192,17.392,17.158c9.518-0.044,17.243-7.796,17.201-17.314
			C139.291,105.961,136.648,100.999,132.488,97.853z"/>
		<path fill="#333333" d="M101.376,41.652c-0.285-0.39-0.702-0.622-1.17-0.786c-0.007,0.015-0.007,0.027-0.015,0.042
			c0.412-1.473,0.532-2.983,0.368-4.097c-0.056-0.403,0.305-1.268,0.675-2.346c0.403-0.537,0.644-1.502,0.708-2.975
			c0.044-0.434,0.036-0.865-0.007-1.297C101.616,16.267,88.428,5.069,72.177,5.069c-16.456,0-29.794,11.481-29.794,25.648
			c0,0.475,0.007,0.871,0.029,1.241l-0.029,0.056c0,0,0.015,0.056,0.042,0.156c0.078,1.161,0.256,1.771,0.561,1.956
			c0.539,1.814,0.439,4.536,0.807,6.889c-0.31,0.156-0.595,0.354-0.8,0.637c-0.914,1.234-0.524,3.926-0.524,5.798
			c0,3.748,2.268,6.789,5.082,6.845C51.101,67.889,60.782,77.67,72.185,77.67c11.41,0,21.084-9.774,24.634-23.373
			c2.814-0.056,5.082-3.097,5.082-6.845C101.901,45.579,102.291,42.886,101.376,41.652z"/>
	</g>
</g>
<g id="Layer_11" display="none">
	<g display="inline">
		<path fill="#333333" d="M124.031,39.509l1.47-1.09c7.365,9.963,11.265,21.793,11.265,34.217c0,18.958-9.339,36.707-24.97,47.471
			l-2.071-3.009c14.648-10.085,23.384-26.707,23.384-44.462c0-11.64-3.648-22.723-10.549-32.046L124.031,39.509z M124.031,39.509
			l1.47-1.09L124.031,39.509z M73.247,81.258c-0.144-0.092-0.298-0.168-0.443-0.267c-0.503-0.343-0.975-0.731-1.408-1.158
			c-0.427-0.427-0.823-0.899-1.158-1.408c-0.343-0.503-0.64-1.045-0.876-1.617c-0.16-0.372-0.283-0.76-0.396-1.164l6.825-4.959
			l4.212,5.979L73.247,81.258z M75.791,70.686l-6.825,4.959c-0.222-0.807-0.351-1.661-0.351-2.537c0-1.31,0.267-2.558,0.747-3.701
			c0.236-0.571,0.532-1.113,0.876-1.617c0.343-0.501,0.731-0.975,1.158-1.408c0.425-0.427,0.899-0.823,1.408-1.158
			c0.503-0.343,1.043-0.64,1.615-0.876c1.135-0.48,2.393-0.747,3.703-0.747c5.247,0,9.506,4.259,9.506,9.506
			c0,5.247-4.259,9.506-9.506,9.506c-1.31,0-2.56-0.267-3.703-0.747c-0.411-0.176-0.8-0.38-1.172-0.608l6.765-4.594L75.791,70.686z
			 M45.643,92.584l19.613-14.243c-0.663-1.617-1.028-3.383-1.028-5.234c0-7.663,6.23-13.894,13.894-13.894
			s13.894,6.23,13.894,13.894s-6.23,13.894-13.894,13.894c-3.313,0-6.361-1.174-8.752-3.116L49.176,97.603l-8.867,2.576
			L45.643,92.584z M79.165,123.655c28.131,0,51.02-22.881,51.02-51.02c0-11.008-3.45-21.489-9.97-30.309l3.824-2.826l1.47-1.09
			l0.501-0.372c-10.678-14.221-27.688-23.431-46.845-23.431c-32.304,0-58.5,26.196-58.5,58.5c0,9.142,2.102,17.786,5.834,25.487
			l6.893-3.405C42.062,112.747,59.605,123.655,79.165,123.655z M79.165,135.264c-34.33,0-62.156-27.826-62.156-62.156
			s27.827-62.156,62.156-62.156s62.156,27.826,62.156,62.156S113.495,135.264,79.165,135.264z M79.165,7.295
			c-36.35,0-65.812,29.463-65.812,65.812s29.463,65.812,65.812,65.812s65.812-29.463,65.812-65.812S115.515,7.295,79.165,7.295z"/>
	</g>
</g>
<g id="Layer_12">
	<path fill="#333333" d="M126.455,82.986l-5.1,2.695c-0.427,0.224-0.89,0.333-1.345,0.333c-1.04,0-2.044-0.564-2.559-1.539
		c-0.744-1.41-0.202-3.158,1.208-3.911l5.1-2.703c1.395-0.744,3.158-0.209,3.918,1.208
		C128.406,80.478,127.864,82.235,126.455,82.986z M110.652,63.258L107.4,68.05c-0.564,0.823-1.467,1.264-2.392,1.264
		c-0.564,0-1.114-0.152-1.611-0.498c-1.323-0.89-1.671-2.688-0.781-4.003l3.252-4.784c0.881-1.323,2.695-1.671,4.011-0.773
		C111.192,60.15,111.555,61.928,110.652,63.258z M87.301,102.014c-1.191-3.36-4.379-5.781-8.136-5.781
		c-3.765,0-6.945,2.422-8.136,5.781h-6.02c0.585-2.818,2.009-5.311,3.974-7.283L53.518,74.878c-0.984-1.258-0.758-3.071,0.505-4.053
		c1.265-0.984,3.071-0.76,4.061,0.498l15.725,20.191c1.663-0.664,3.469-1.069,5.363-1.069c6.98,0,12.82,4.973,14.149,11.562
		L87.301,102.014z M45.684,76.678c-0.57,0.672-1.38,1.018-2.203,1.018c-0.659,0-1.323-0.224-1.872-0.686l-4.401-3.735
		c-1.214-1.034-1.358-2.855-0.331-4.076c1.025-1.208,2.855-1.352,4.076-0.333l4.401,3.737
		C46.574,73.635,46.718,75.457,45.684,76.678z M36.341,95.531c-0.303,1.345-1.489,2.27-2.819,2.27c-0.202,0-0.413-0.022-0.622-0.072
		l-5.644-1.243c-1.56-0.355-2.544-1.887-2.203-3.448c0.348-1.567,1.865-2.544,3.447-2.203l5.644,1.243
		C35.69,92.431,36.68,93.97,36.341,95.531z M58.512,53.668c1.474-0.577,3.165,0.13,3.75,1.626l2.133,5.356
		c0.592,1.48-0.131,3.165-1.619,3.743c-0.363,0.13-0.709,0.202-1.077,0.202c-1.143,0-2.24-0.686-2.69-1.813l-2.124-5.361
		C56.301,55.93,57.022,54.247,58.512,53.668z M81.694,52.628c0.174-1.591,1.597-2.732,3.195-2.551
		c1.582,0.179,2.731,1.604,2.551,3.186l-0.622,5.739c-0.159,1.482-1.417,2.573-2.869,2.573c-0.117,0-0.216-0.007-0.333-0.015
		c-1.574-0.181-2.738-1.604-2.551-3.195L81.694,52.628z M79.165,38.42c-39.146,0-66.485,27.337-66.485,66.485
		c0,1.589,1.295,2.89,2.892,2.89h127.188c1.589,0,2.892-1.301,2.892-2.89C145.65,65.757,118.311,38.42,79.165,38.42z"/>
</g>
</svg>
