<?xml version="1.0" encoding="utf-8"?>
<!-- Generator: Adobe Illustrator 18.1.1, SVG Export Plug-In . SVG Version: 6.00 Build 0)  -->
<svg version="1.1" xmlns="http://www.w3.org/2000/svg" xmlns:xlink="http://www.w3.org/1999/xlink" x="0px" y="0px"
	 viewBox="0 0 158.33 146.215" enable-background="new 0 0 158.33 146.215" xml:space="preserve">
<g id="Layer_1" display="none">
	
		<path display="inline" fill="#333333" stroke="#FFFFFF" stroke-width="2.371" stroke-linecap="round" stroke-linejoin="round" stroke-miterlimit="10" d="
		M152.087,73.291c0,39.723-32.199,71.924-71.921,71.924S8.243,113.014,8.243,73.291c0-39.719,32.201-71.92,71.923-71.92
		S152.087,33.572,152.087,73.291z"/>
	<g display="inline">
		<g>
			<polygon fill="#989898" points="158.33,109.588 158.314,109.758 48.771,99.75 41.637,82.65 			"/>
		</g>
		<g>
			<polygon fill="#CDCCCC" points="158.33,109.588 63.697,62.975 64.807,40.291 			"/>
		</g>
		<g>
			<polygon fill="#FFFFFF" points="99.305,22.857 158.33,109.588 64.807,40.291 			"/>
		</g>
		<g>
			<polygon fill="#FFFFFF" points="158.33,109.588 41.637,82.65 0,73.031 41.529,52.053 63.697,62.975 			"/>
		</g>
	</g>
</g>
<g id="Layer_4">
	<path fill="#333333" d="M125.719,92.319L83.923,78.757v23.398l9.788,7.86l-0.006,6.626l-14.586-3.008l-14.5,3.008v-6.626
		l9.788-7.86v-23.46h-0.07L32.611,92.171V81.937l41.726-23.18h0.07v-29.5c0,0-0.102-7.61,4.758-7.61s4.758,7.61,4.758,7.61v29.54
		l41.796,23.086V92.319z M79.165,6.141c-36.656,0-66.376,29.718-66.376,66.374s29.72,66.374,66.376,66.374
		s66.376-29.718,66.376-66.374S115.821,6.141,79.165,6.141z"/>
</g>
<g id="Layer_2" display="none">
	<path display="inline" fill="#333333" d="M79.165,124.341c2.14,0,3.89,1.734,3.89,3.89c0,2.142-1.75,3.892-3.89,3.892
		c-2.156,0-3.89-1.75-3.89-3.892C75.275,126.075,77.009,124.341,79.165,124.341z M79.165,112.389c2.14,0,3.89,1.75,3.89,3.89
		c0,2.156-1.75,3.89-3.89,3.89c-2.156,0-3.89-1.734-3.89-3.89C75.275,114.139,77.009,112.389,79.165,112.389z M55.119,90.403
		c-3.322,1.508-6.664,2.884-9.844,4.22c-0.15,0.062-0.314,0.116-0.47,0.188c-0.68,0.28-1.35,0.562-2.016,0.842
		c-0.038,0.032-0.1,0.024-0.14,0.048c-0.694,0.296-1.398,0.594-2.062,0.89c-0.532,0.226-1.04,0.476-1.546,0.704
		c-1.244,0.554-2.408,1.086-3.516,1.64c-4.548,2.282-8.22,7.274-10.922,13.126c-2.704,5.85-4.406,12.656-4.406,18.842
		c0,0.75,0.492,1.438,1.172,1.736c15.92,7.116,45.132,7.968,57.796,7.968s41.876-0.852,57.796-7.968
		c0.68-0.298,1.172-0.986,1.172-1.736c0-6.186-1.702-12.992-4.406-18.842c-2.702-5.852-6.328-10.844-10.874-13.126
		c-1.11-0.554-2.32-1.086-3.564-1.64c-0.506-0.228-1.014-0.478-1.546-0.704c-0.664-0.296-1.368-0.594-2.062-0.89
		c-0.04-0.024-0.102-0.024-0.14-0.048c-0.666-0.28-1.33-0.562-2.016-0.842c-0.15-0.072-0.32-0.126-0.47-0.188
		c-3.18-1.336-6.522-2.712-9.844-4.22c-0.03,10.986-6.186,18.75-6.186,18.75s-6.134,0.048-12.328-5.624
		c-1.806,0.968-3.712,1.5-5.532,1.5s-3.726-0.532-5.532-1.5c-6.194,5.672-12.328,5.624-12.328,5.624S55.149,101.389,55.119,90.403z
		 M51.321,41.231c-0.28,14.93-6.554,25.986-16.922,31.548c0,0,6.234,14.204,20.438,14.204h8.344
		c4.054,3.578,8.702,5.624,13.688,5.624c4.976,0,9.678-2.046,13.734-5.624h12.89c14.204,0,20.438-14.204,20.438-14.204
		c-14.946-7.094-16.742-17.742-16.876-31.548H51.321z M59.431,21.075h17.672c0.266,0.008,0.508,0.236,0.516,0.516v2.578
		c0.734-0.616,1.67-1.03,2.718-1.03c1.038,0,2.016,0.414,2.766,1.03v-2.578c0-0.28,0.234-0.516,0.516-0.516h17.624
		c0.242,0,0.468,0.18,0.516,0.422c0.046,0.242-0.102,0.524-0.328,0.61l-17.156,6.938c-0.642,1.546-2.172,2.624-3.938,2.624
		c-1.774,0-3.25-1.078-3.89-2.624l-17.158-6.938c-0.218-0.078-0.358-0.32-0.328-0.562C58.993,21.317,59.189,21.099,59.431,21.075z
		 M79.821,5.607c-10.266,1.328-20.032,12.57-35.812,18.094c-0.586,0.18-1.062,0.64-1.266,1.218c-0.21,0.578-0.148,1.228,0.188,1.734
		l6.89,10.36c0.36,0.54,1,0.844,1.64,0.844h57.75c0.65,0,1.282-0.304,1.642-0.844l6.89-10.36c0.336-0.506,0.446-1.156,0.234-1.734
		c-0.202-0.578-0.688-1.046-1.266-1.218C100.915,18.177,91.119,6.935,80.853,5.607C80.501,5.631,80.141,5.631,79.821,5.607z"/>
</g>
<g id="Layer_3" display="none">
	<path display="inline" fill="#333333" d="M103.016,113.228L103.016,113.228c0.03,0,0.062,0,0.094,0c0.014,0,0.03,0,0.046,0h14.438
		c0.124,0,0.242,0.048,0.328,0.14c0.054,0.072,0.086,0.15,0.094,0.236c0,0.016,0,0.03,0,0.046v2.11
		c0.608-0.516,1.39-0.844,2.25-0.844c0.858,0,1.64,0.328,2.25,0.844v-2.11c0.008-0.046,0.024-0.094,0.046-0.14
		c0.032-0.102,0.102-0.18,0.188-0.234c0.07-0.04,0.156-0.056,0.234-0.048h14.438c0.032,0,0.062,0,0.094,0
		c0.18,0.04,0.312,0.196,0.328,0.376c0.016,0.116-0.016,0.234-0.094,0.328c-0.024,0.038-0.054,0.07-0.094,0.094
		c-0.032,0.014-0.062,0.03-0.094,0.046l-14.062,5.672c-0.524,1.266-1.782,2.156-3.234,2.156c-1.454,0-2.664-0.89-3.188-2.156
		l-14.062-5.672c-0.102-0.032-0.18-0.102-0.234-0.188c-0.072-0.108-0.086-0.25-0.048-0.374
		C102.774,113.376,102.882,113.268,103.016,113.228z M77.796,108.12L77.796,108.12c-0.398,0.078-0.71,0.39-0.796,0.796l-1.968,8.766
		c1.936,4.164,4.07,8.242,6.422,12.186c2.374-3.92,4.562-8.006,6.514-12.186L86,108.916c-0.118-0.484-0.546-0.812-1.032-0.796
		h-6.936c-0.048,0-0.094,0-0.142,0C77.86,108.12,77.828,108.12,77.796,108.12z M76.016,95.698L76.016,95.698
		c-0.57,0.116-0.938,0.686-0.798,1.264l1.594,8.204c0.094,0.484,0.5,0.836,0.984,0.844h7.36c0.5,0.016,0.938-0.344,1.032-0.844
		l1.594-8.204c0.148-0.664-0.368-1.288-1.032-1.264h-10.5c-0.046,0-0.094,0-0.14,0C76.078,95.698,76.046,95.698,76.016,95.698z
		 M59.562,81.962c-1.702,0.664-20.984,8.242-26.344,11.906c-5.6,3.836-9.014,8.188-12,14.766c-2.984,6.578-4.874,14.22-4.874,21.188
		c0,0.836,0.516,1.626,1.266,1.968c17.594,8.008,49.898,8.954,63.89,8.954c14,0,46.25-0.946,63.844-8.954
		c0.75-0.342,1.312-1.132,1.312-1.968c0-6.968-1.89-14.61-4.874-21.188c-2.986-6.578-6.4-10.93-12-14.766
		c-5.352-3.656-24.586-11.218-26.344-11.906c-2.946,13.188-6.93,26.11-12.142,37.078c-1.928,3.93-4.054,7.914-5.718,10.922
		c-0.828,1.5-1.546,2.75-2.11,3.658c-0.28,0.452-0.492,0.796-0.702,1.078c-0.11,0.14-0.204,0.296-0.328,0.422
		c-0.062,0.062-0.118,0.108-0.234,0.186c-0.118,0.078-0.306,0.228-0.704,0.234c-0.398-0.006-0.586-0.156-0.704-0.234
		c-0.116-0.078-0.172-0.124-0.234-0.186c-0.124-0.126-0.218-0.282-0.328-0.422c-0.21-0.282-0.468-0.626-0.75-1.078
		c-0.562-0.908-1.28-2.158-2.108-3.658c-1.666-3.008-3.744-6.992-5.672-10.922C66.492,108.072,62.508,95.15,59.562,81.962z
		 M109.812,40.572c-2.038,0.828-4.086,1.586-6.188,2.25c-16.334,5.626-34.546,4.266-50.436-2.202c-0.04,2.664-0.094,5.39-0.094,5.39
		c-0.18,0.086-0.398,0.116-0.562,0.234c-0.766,0.546-1.236,1.32-1.548,2.11c-0.624,1.578-0.702,3.32-0.702,5.53
		c0,6.992,4.014,13.634,8.014,17.532C61.43,82.978,70.5,91.674,81.5,91.994c11-0.32,20.07-9.016,23.204-20.578
		c4-3.898,8.014-10.54,8.014-17.532c0-2.21-0.078-3.952-0.702-5.53c-0.312-0.79-0.828-1.564-1.594-2.11
		c-0.164-0.118-0.336-0.148-0.516-0.234C109.906,46.01,109.852,43.268,109.812,40.572z M81.5,27.448
		c-14.828,0-27.602,5.592-32.204,7.874c4.602,2.29,17.376,7.828,32.204,7.828s27.602-5.538,32.204-7.828
		C109.102,33.04,96.328,27.448,81.5,27.448z M64.204,13.854L64.204,13.854c0.046-0.008,0.092-0.008,0.14,0c0.016,0,0.032,0,0.046,0
		h14.438c0.204,0,0.376,0.132,0.422,0.328c0,0.03,0,0.062,0,0.094v2.108c0.61-0.516,1.39-0.844,2.25-0.844s1.64,0.328,2.25,0.844
		v-2.108c0-0.126,0.046-0.242,0.14-0.328c0.04-0.04,0.086-0.072,0.142-0.094c0.046-0.008,0.092-0.008,0.14,0H98.61
		c0.078-0.008,0.164,0.008,0.234,0.046c0.288,0.164,0.288,0.586,0,0.75c-0.016,0.016-0.032,0.032-0.048,0.048l-14.062,5.67
		c-0.524,1.266-1.78,2.158-3.234,2.158s-2.71-0.892-3.234-2.158l-14.062-5.67c-0.016-0.016-0.032-0.032-0.048-0.048
		c-0.078-0.038-0.148-0.11-0.188-0.188c-0.092-0.21-0.014-0.452,0.188-0.562C64.172,13.884,64.188,13.868,64.204,13.854z
		 M81.5,5.744c-17.328,0-36.46,13.922-34.406,25.546c0.14,0.798,0.438,1.54,0.844,2.25c4.382-2.242,17.608-8.296,33.562-8.296
		c15.946,0,29.18,6.054,33.562,8.296c0.406-0.71,0.704-1.452,0.844-2.25C117.954,19.666,98.82,5.744,81.5,5.744z"/>
</g>
</svg>
